<?xml version="1.0" standalone="no"?>
<!DOCTYPE svg PUBLIC "-//W3C//DTD SVG 20010904//EN"
 "http://www.w3.org/TR/2001/REC-SVG-20010904/DTD/svg10.dtd">
<svg version="1.0" xmlns="http://www.w3.org/2000/svg"
 width="225.000000pt" height="225.000000pt" viewBox="0 0 225.000000 225.000000"
 preserveAspectRatio="xMidYMid meet">
<metadata>
Created by potrace 1.11, written by Peter Selinger 2001-2013
</metadata>
<g transform="translate(0.000000,225.000000) scale(0.100000,-0.100000)"
fill="#000000" stroke="none">
<path d="M927 2225 c-226 -43 -424 -148 -589 -311 -140 -140 -244 -318 -295
-511 -24 -89 -26 -115 -26 -278 0 -164 2 -189 27 -280 100 -373 381 -667 746
-783 607 -193 1250 163 1417 785 24 89 27 115 27 278 -1 164 -3 189 -28 280
-31 116 -104 272 -169 364 -62 88 -186 211 -274 272 -101 69 -244 135 -360
166 -125 32 -354 41 -476 18z m260 -936 c38 -14 83 -57 99 -96 54 -125 -57
-264 -190 -239 -133 25 -191 183 -103 283 51 58 125 78 194 52z m-283 -292
c66 -114 216 -158 333 -99 43 23 107 88 118 121 6 21 11 21 271 21 214 0 264
-3 264 -13 0 -8 -9 -48 -20 -90 -53 -210 -198 -392 -390 -491 -121 -63 -216
-86 -350 -86 -134 0 -232 23 -359 86 -78 39 -110 62 -181 133 -123 122 -200
266 -225 419 l-7 42 260 0 260 0 26 -43z"/>
</g>
</svg>
